# xmcd
#
# Track frame offsets: 
#        150
#        13415
#        29382
#        41861
#        57999
#        75471
#        92555
#        103564
#        119196
#        139908
#        160240
#        176123
#        193336
#
# Disc length: 2817 seconds
#
# Revision: 0
# Processed by: cddbd v1.5.2PL0 Copyright (c) Steve Scherf et al.
# Submitted via: ExactAudioCopy v1.0b1
#
DISCID=bc0aff0d
DTITLE=Matuška Waldemar - Zpívá Waldemar Matuška
DYEAR=1965
DGENRE=Christian Rap
TTITLE0=Nebeskej kovboj
TTITLE1=Árie měsíce
TTITLE2=Buď pořád se mnou
TTITLE3=Písnička pro Zuzanu
TTITLE4=Jó, třešně zrály
TTITLE5=Divoký koně
TTITLE6=Tereza
TTITLE7=Mrholí
TTITLE8=Ach, ta láska nebeská
TTITLE9=Slaný déšť
TTITLE10=Mám malý stan
TTITLE11=Tam za vodou v rákosí
TTITLE12=Růže z Texasu
EXTD=
EXTT0=
EXTT1=
EXTT2=
EXTT3=
EXTT4=
EXTT5=
EXTT6=
EXTT7=
EXTT8=
EXTT9=
EXTT10=
EXTT11=
EXTT12=
PLAYORDER=
